Coordinates
version=1
nRows=14
nColumns=40
inDegrees=yes

Units are S.I. units (second, meters, Newtons, ...)
If the header above contains a line with 'inDegrees', this indicates whether rotational values are in degrees (yes) or radians (no).

endheader
time	pelvis_tilt	pelvis_list	pelvis_rotation	pelvis_tx	pelvis_ty	pelvis_tz	hip_flexion_r	hip_adduction_r	hip_rotation_r	knee_angle_r	knee_angle_r_beta	ankle_angle_r	subtalar_angle_r	mtp_angle_r	hip_flexion_l	hip_adduction_l	hip_rotation_l	knee_angle_l	knee_angle_l_beta	ankle_angle_l	subtalar_angle_l	mtp_angle_l	lumbar_extension	lumbar_bending	lumbar_rotation	arm_flex_r	arm_add_r	arm_rot_r	elbow_flex_r	pro_sup_r	wrist_flex_r	wrist_dev_r	arm_flex_l	arm_add_l	arm_rot_l	elbow_flex_l	pro_sup_l	wrist_flex_l	wrist_dev_l
      0.12500000	    -18.83280118	      5.52190203	     16.02616777	     -2.15195422	      0.94528833	      0.28349443	     30.00038598	    -11.18592956	    -11.52831132	    112.12933579	      1.95702610	     -1.69208846	      0.00000000	      0.00000000	     39.28106349	      7.98768430	     -4.33561883	     43.49482891	      0.75912797	     11.79536369	      0.00000000	      0.00000000	    -26.05621913	     -7.10696077	    -10.65422487	    -14.34426478	    -14.55834501	    -20.83158583	     71.29782432	     73.27372339	      0.00000000	      0.00000000	     17.41887758	    -23.06033470	      5.86205837	     99.80693913	     39.54818560	      0.00000000	      0.00000000
      0.13000000	    -18.87595230	      4.83843114	     17.67351641	     -2.12311458	      0.94179165	      0.28099619	     32.91879929	    -11.81086598	    -12.09818661	    114.41473712	      1.99691388	     -0.15059344	      0.00000000	      0.00000000	     37.48778717	      8.27946332	     -2.18390185	     43.81928538	      0.76479081	     14.26762157	      0.00000000	      0.00000000	    -25.48290469	     -5.83824351	    -12.03149523	    -17.43976413	    -14.91224526	    -20.61180723	     69.79108565	     84.85101478	      0.00000000	      0.00000000	     21.72111335	    -21.85404250	      6.91923208	    100.61641403	     39.36832358	      0.00000000	      0.00000000
      0.13500000	    -18.92007351	      4.05061816	     19.32949602	     -2.09456003	      0.93813645	      0.27849682	     35.95224486	    -12.49271711	    -12.59303639	    116.39244655	      2.03143142	      1.33532406	      0.00000000	      0.00000000	     35.76719570	      8.35782322	     -0.03862484	     44.15274985	      0.77061086	     16.62576815	      0.00000000	      0.00000000	    -24.83468817	     -4.46241988	    -13.47134544	    -20.71442148	    -15.41331634	    -19.63425288	     69.17170879	     87.53675225	      0.00000000	      0.00000000	     26.01682575	    -20.65371812	      7.77323213	    101.39295425	     39.33063648	      0.00000000	      0.00000000
      0.14000000	    -18.96569217	      3.15640125	     20.98199502	     -2.06626330	      0.93438894	      0.27605424	     39.09551537	    -13.22800970	    -13.01206740	    118.03249814	      2.06005572	      2.74388022	      0.00000000	      0.00000000	     34.14189525	      8.20021630	      2.07094528	     44.49747108	      0.77662738	     18.79136672	      0.00000000	      0.00000000	    -24.12005691	     -2.98687139	    -14.91515254	    -24.10065044	    -15.95449292	    -18.56884254	     69.05551548	     88.41130213	      0.00000000	      0.00000000	     30.35519150	    -19.46184646	      8.49029726	    102.16850723	     38.62556338	      0.00000000	      0.00000000
      0.14500000	    -19.00979082	      2.16682484	     22.60937983	     -2.03815053	      0.93062933	      0.27372968	     42.32996831	    -14.01318481	    -13.34442500	    119.30557044	      2.08227502	      4.05912500	      0.00000000	      0.00000000	     32.61572591	      7.79488905	      4.11262685	     44.83292051	      0.78248208	     20.69748732	      0.00000000	      0.00000000	    -23.34807574	     -1.43038664	    -16.32788566	    -27.56826867	    -16.47632995	    -17.60705513	     69.32639077	     88.81759846	      0.00000000	      0.00000000	     34.74552803	    -18.28235745	      9.06740923	    102.88229606	     37.96155083	      0.00000000	      0.00000000
      0.15000000	    -19.04646513	      1.10248564	     24.18046109	     -2.01010272	      0.92694892	      0.27158008	     45.62368213	    -14.83738184	    -13.57302948	    120.18444857	      2.09761434	      5.27180854	      0.00000000	      0.00000000	     31.17493794	      7.13866956	      6.05408174	     45.11754773	      0.78744976	     22.28639184	      0.00000000	      0.00000000	    -22.53006281	      0.18010538	    -17.68070162	    -31.08542698	    -16.93073042	    -16.82520454	     69.88950082	     89.04451915	      0.00000000	      0.00000000	     39.16567505	    -17.12643237	      9.49806740	    103.54994273	     37.21267795	      0.00000000	      0.00000000
      0.15500000	    -19.06839273	     -0.01005448	     25.65540386	     -1.98196593	      0.92344397	      0.26964959	     48.93428079	    -15.67768622	    -13.67946396	    120.64694837	      2.10568648	      6.37825012	      0.00000000	      0.00000000	     29.79205511	      6.23562938	      7.86472097	     45.29744940	      0.79058963	     23.50983847	      0.00000000	      0.00000000	    -21.67927365	      1.81282787	    -18.94484308	    -34.61546231	    -17.27918049	    -16.26007779	     70.64929057	     89.18574301	      0.00000000	      0.00000000	     43.57494163	    -16.00982712	      9.76504058	    104.18373533	     36.45662014	      0.00000000	      0.00000000
      0.16000000	    -19.07010927	     -1.14086169	     26.98909780	     -1.95357240	      0.92020388	      0.26795882	     52.21500703	    -16.50119083	    -13.64642256	    120.68067741	      2.10627516	      7.37925733	      0.00000000	      0.00000000	     28.43173992	      5.09915251	      9.51894268	     45.31831028	      0.79095373	     24.32876678	      0.00000000	      0.00000000	    -20.80857412	      3.43362106	    -20.09217910	    -38.11943957	    -17.49828802	    -15.92086467	     71.51512802	     89.28142684	      0.00000000	      0.00000000	     47.91972604	    -14.95537573	      9.85271369	    104.80717681	     35.74578029	      0.00000000	      0.00000000
      0.16500000	    -19.04791098	     -2.26083962	     28.13604981	     -1.92476165	      0.91730638	      0.26649973	     55.41722534	    -17.26687317	    -13.46656046	    120.28024316	      2.09928627	      8.27341575	      0.00000000	      0.00000000	     27.05402913	      3.75087245	     10.99826147	     45.13605721	      0.78777281	     24.71322137	      0.00000000	      0.00000000	    -19.93105047	      5.01108477	    -21.09116260	    -41.56461518	    -17.57782587	    -15.80766382	     72.41349101	     89.34989958	      0.00000000	      0.00000000	     52.14224146	    -13.98227203	      9.75198816	    105.44684076	     35.12438888	      0.00000000	      0.00000000
      0.17000000	    -19.00109515	     -3.34319430	     29.05453268	     -1.89539942	      0.91480970	      0.26524004	     58.49510732	    -17.93170399	    -13.14523233	    119.44764461	      2.08475468	      9.05838747	      0.00000000	      0.00000000	     25.61803176	      2.22088437	     12.28987247	     44.72244204	      0.78055386	     24.63783147	      0.00000000	      0.00000000	    -19.05967068	      6.51808471	    -21.91134039	    -44.92514904	    -17.52159819	    -15.91170892	     73.29113429	     89.40211514	      0.00000000	      0.00000000	     56.18457504	    -13.10892003	      9.46325376	    106.13286945	     34.60225219	      0.00000000	      0.00000000
      0.17500000	    -18.93332393	     -4.36391501	     29.70970518	     -1.86538771	      0.91274703	      0.26413550	     61.40981590	    -18.45654921	    -12.69674425	    118.19292262	      2.06285565	      9.73647101	      0.00000000	      0.00000000	     24.08553115	      0.54768871	     13.38330665	     44.06668189	      0.76910869	     24.08046528	      0.00000000	      0.00000000	    -18.20615552	      7.93042400	    -22.52517956	    -48.18290505	    -17.34103612	    -16.22254255	     74.11575207	     89.44412007	      0.00000000	      0.00000000	     59.99392541	    -12.34913699	      8.99255212	    106.86180831	     34.60942573	      0.00000000	      0.00000000
      0.18000000	    -18.85123035	     -5.30345796	     30.07816628	     -1.83466783	      0.91113086	      0.26313988	     64.12844419	    -18.81095883	    -12.14643842	    116.53082124	      2.03384651	     10.31565902	      0.00000000	      0.00000000	     22.42298846	     -1.22333448	     14.27168230	     43.17320505	      0.75351458	     23.02260232	      0.00000000	      0.00000000	    -17.38114979	      9.22871271	    -22.91375381	    -51.32280661	    -17.05156997	    -16.72850770	     74.87135340	     89.47914105	      0.00000000	      0.00000000	     63.51691703	    -11.71819360	      8.37698073	    107.75772402	     33.83922529	      0.00000000	      0.00000000
      0.18500000	    -18.76159524	     -6.14788208	     30.15211944	     -1.80321963	      0.90996093	      0.26221182	     66.62015426	    -18.97760696	    -11.52979991	    114.47680444	      1.99799715	     10.80627199	      0.00000000	      0.00000000	     20.60325773	     -3.04188659	     14.95467199	     42.05802881	      0.73405108	     21.45008668	      0.00000000	      0.00000000	    -16.59477430	     10.40066141	    -23.07118600	    -54.32930789	    -16.67177892	    -17.41320823	     75.55340708	     89.50895880	      0.00000000	      0.00000000	     66.71497928	    -11.22303121	      7.62999254	    108.74562398	     33.57327256	      0.00000000	      0.00000000
      0.19000000	    -18.66885996	     -6.88693172	     29.94081798	     -1.77105656	      0.90923090	      0.26131793	     68.85354810	    -18.95583209	    -10.88717020	    112.04652345	      1.95558075	     11.21850036	      0.00000000	      0.00000000	     18.60639735	     -4.85326956	     15.43953386	     40.74521041	      0.71113808	     19.35944375	      0.00000000	      0.00000000	    -15.85799872	     11.44009494	    -23.00659263	    -57.18416613	    -16.21986534	    -18.25658388	     76.16514334	     89.53481885	      0.00000000	      0.00000000	     69.55160302	    -10.87163440	      6.78969359	    109.85634684	     33.61134785	      0.00000000	      0.00000000
